<!-- Generated by IcoMoon.io -->
<svg version="1.1" xmlns="http://www.w3.org/2000/svg" width="24" height="24" viewBox="0 0 24 24">
<title>information--start-urban-area--FR-EB10-1</title>
<path fill="#fff" d="M0 0v24h24v-9.189l-0.069 0.053-0.017 0.036-0.084 0.118-0.11 0.133-0.065 0.065-0.135 0.11-0.069 0.042-0.069 0.040-0.069 0.029-0.069 0.027-0.137 0.027-0.069 0.004-0.069 0.002-22.011-0.006-0.137-0.027-0.069-0.027-0.069-0.029-0.137-0.082-0.135-0.11-0.065-0.065-0.11-0.135-0.042-0.069-0.069-0.137-0.027-0.069-0.015-0.069-0.011-0.069-0.006-0.137v-5.006l0.006-0.137 0.011-0.069 0.015-0.069 0.027-0.069 0.069-0.137 0.042-0.069 0.11-0.135 0.065-0.065 0.135-0.11 0.069-0.042 0.069-0.040 0.069-0.029 0.069-0.027 0.137-0.027 0.137-0.006 22.149 0.032 0.069 0.027 0.069 0.029 0.137 0.082 0.135 0.11 0.122 0.131 0.091 0.133 0.027 0.038 0.036 0.103 0.049-0.053 0.002-0.036 0.013-0.055 0.002-0.063 0.002-0.135v-8.777h-24z"></path>
<path fill="#4f4d4e" d="M0.823 8.434l0.069 0.137h0.069v-0.069l-0.137-0.069z"></path>
<path fill="#020202" d="M0.891 8.434l0.053 0.050 0.036 0.002 0.055 0.013 0.13 0.004 21.806 0.006 0.137 0.023 0.069 0.019 0.137 0.050 0.137 0.074 0.069 0.051 0.067 0.057 0.065 0.065 0.109 0.135 0.069 0.133 0.015 0.038 0.019 0.103 0.048-0.053-0.002-0.036 0.002-0.055-0.013-0.063-0.053-0.135-0.040-0.067-0.042-0.065-0.11-0.11-0.065-0.042-0.135-0.070-0.069-0.030-0.137-0.048-0.069-0.019-0.069-0.013-0.137-0.013-0.069-0.002h-22.011z"></path>
<path fill="#020202" d="M0.137 9.257l0.055-0.053 0.013-0.036 0.030-0.055 0.072-0.13 0.109-0.135 0.065-0.065 0.135-0.109 0.065-0.038 0.107-0.046 0.103-0.019-0.053-0.048-0.036 0.002-0.055-0.002-0.13 0.038-0.069 0.029-0.131 0.082-0.11 0.11-0.042 0.065-0.040 0.067-0.055 0.133-0.027 0.107-0.006 0.103z"></path>
<path fill="#93908e" d="M0.96 8.503l0.053 0.050 0.036 0.002 0.055 0.013 0.063 0.002 0.135 0.002h21.806l-0.053-0.050-0.036-0.002-0.055-0.013-0.063-0.002-0.135-0.002h-21.806z"></path>
<path fill="#717171" d="M0.48 8.571v0zM0.686 8.571v0z"></path>
<path fill="#fff" d="M0.754 8.606l-0.069 0.030-0.137 0.090-0.067 0.057-0.065 0.065-0.109 0.135-0.069 0.137-0.017 0.069-0.011 0.069-0.006 0.137v5.074l0.002 0.137 0.015 0.137 0.017 0.069 0.030 0.069 0.090 0.137 0.057 0.067 0.131 0.118 0.137 0.082 0.069 0.027 0.069 0.021 0.137 0.023 0.137 0.006 22.011-0.006 0.137-0.023 0.069-0.021 0.137-0.063 0.069-0.046 0.067-0.055 0.122-0.13 0.051-0.069 0.069-0.137 0.017-0.069 0.015-0.137 0.002-0.137v-5.074l-0.006-0.137-0.011-0.069-0.017-0.069-0.069-0.137-0.109-0.135-0.065-0.065-0.067-0.057-0.137-0.090-0.069-0.030-0.069-0.017-0.069-0.011-0.137-0.006-22.286 0.034z"></path>
<path fill="#717171" d="M23.314 8.571v0zM23.52 8.571v0zM0.549 8.64v0z"></path>
<path fill="#a9a9a9" d="M0.48 8.709v0zM23.52 8.709v0z"></path>
<path fill="#ce525a" d="M0.869 8.8v0.023h0.046l-0.023-0.023h-0.023z"></path>
<path fill="#ef1b24" d="M1.029 8.914l-0.099-0.017-0.076-0.023-0.099-0.029-0.048 0.103-0.027 0.038-0.042 0.069-0.082 0.133-0.055 0.137-0.019 0.137-0.002 0.069v4.8l0.006 0.137 0.010 0.069 0.029 0.137 0.017 0.069 0.055 0.135 0.097 0.116 0.063 0.042 0.135 0.042 0.137 0.008 22.217-0.023 0.135-0.069 0.116-0.116 0.042-0.067 0.042-0.137 0.006-0.069 0.002-0.069v-5.143l-0.008-0.137-0.036-0.135-0.074-0.122-0.048-0.053-0.114-0.082-0.131-0.055-0.137-0.027-0.137-0.006-21.848 0.019-0.029 0.027-0.023 0.013 0.025 0.078z"></path>
<path fill="#c91d22" d="M0.823 8.846l0.050 0.050 0.036 0.002 0.12 0.017-0.050-0.050-0.036-0.002-0.12-0.017z"></path>
<path fill="#c91d22" d="M0.617 8.914l-0.067 0.103-0.011 0.034-0.040 0.103-0.019 0.103 0.086-0.053 0.027-0.036 0.048-0.051 0.067-0.099 0.048-0.103h-0.137z"></path>
<path fill="#4f4d4e" d="M23.726 8.914v0zM0.137 8.983v0z"></path>
<path fill="#97c1b7" d="M0.069 9.12v0zM23.931 9.12v0z"></path>
<path fill="#4f4d4e" d="M0.069 9.189v0.137h0.137v-0.069l-0.137-0.069z"></path>
<path fill="#ce525a" d="M0.434 9.234v0.023l0.023 0.023v-0.046h-0.023z"></path>
<path fill="#4f4d4e" d="M23.931 9.189l-0.069 0.069v0.137l0.076-0.051 0.025-0.072 0.010-0.030-0.042-0.051z"></path>
<path fill="#c91d22" d="M23.589 9.257v5.28l0.049-0.053 0.002-0.036 0.013-0.055 0.002-0.063 0.002-0.067v-4.731l-0.002-0.067-0.002-0.063-0.013-0.055-0.002-0.036-0.049-0.053z"></path>
<path fill="#020202" d="M0.069 9.326v5.074l0.006 0.137 0.010 0.069 0.013 0.069 0.019 0.069 0.050 0.137 0.074 0.137 0.051 0.069 0.122 0.131 0.135 0.109 0.069 0.038 0.133 0.048 0.038 0.011 0.103 0.006-0.053-0.055-0.036-0.013-0.055-0.030-0.13-0.072-0.135-0.109-0.065-0.065-0.109-0.135-0.074-0.137-0.027-0.069-0.042-0.137-0.023-0.137-0.006-0.137v-4.731l-0.002-0.067-0.002-0.063-0.013-0.055-0.002-0.036-0.050-0.053z"></path>
<path fill="#93908e" d="M0.137 9.326v5.28l0.050-0.053 0.002-0.036 0.013-0.055 0.002-0.063 0.002-0.067v-4.731l-0.002-0.067-0.002-0.063-0.013-0.055-0.002-0.036-0.050-0.053z"></path>
<path fill="#c91d22" d="M0.411 9.326v5.006l0.002 0.069 0.004 0.069 0.021 0.133 0.025 0.107 0.017 0.103 0.048-0.053-0.002-0.036 0.004-0.055-0.023-0.13-0.021-0.137-0.004-0.069-0.002-0.137v-4.594l-0.002-0.067-0.002-0.063-0.013-0.055-0.002-0.036-0.050-0.053z"></path>
<path fill="#383638" d="M23.931 9.326v4.869l-0.006 0.137-0.019 0.137-0.013 0.065 0.002 0.069-0.008 0.038 0.044 0.103 0.049-0.053 0.002-0.036 0.013-0.055 0.002-0.063 0.002-0.067v-4.869l-0.002-0.067-0.002-0.063-0.013-0.055-0.002-0.036-0.049-0.053z"></path>
<path fill="#f8cbcd" d="M23.657 9.394v5.143l0.049-0.053 0.002-0.036 0.013-0.055 0.002-0.063 0.002-0.067v-4.594l-0.002-0.067-0.002-0.063-0.013-0.055-0.002-0.036-0.049-0.053z"></path>
<path fill="#93908e" d="M23.863 9.394v5.143l0.049-0.053 0.002-0.036 0.013-0.055 0.002-0.063 0.002-0.067v-4.594l-0.002-0.067-0.002-0.063-0.013-0.055-0.002-0.036-0.049-0.053z"></path>
<path fill="#c91d22" d="M1.234 9.463l0.053 0.050 0.036 0.002 0.055 0.013 0.063 0.002 0.135 0.002h21.257l-0.053-0.050-0.036-0.002-0.055-0.013-0.063-0.002-0.135-0.002h-21.257z"></path>
<path fill="#f59191" d="M1.166 9.531v4.869h21.737l-0.053-0.049-0.036-0.002-0.055-0.013-0.063-0.002-0.135-0.002h-21.326v-4.526l-0.002-0.067-0.002-0.063-0.013-0.055-0.002-0.036-0.050-0.053z"></path>
<path fill="#fdb1b5" d="M1.234 9.531l0.053 0.050 0.036 0.002 0.055 0.013 0.063 0.002 0.135 0.002 21.185 0.029 0.141 0.040-0.025-0.078-0.025-0.013-0.042-0.027-0.116-0.017-0.067-0.002h-21.394z"></path>
<path fill="#c91d22" d="M22.903 9.531v4.731l0.049-0.053 0.002-0.036 0.013-0.055 0.002-0.063 0.002-0.067v-4.183l-0.002-0.067-0.002-0.063-0.013-0.055-0.002-0.036-0.049-0.053zM1.097 9.6v0.206l0.048-0.051v-0.103l-0.048-0.051z"></path>
<path fill="#fff" d="M1.234 9.6v4.731h21.6v-4.731h-21.6z"></path>
<path fill="#f8cbcd" d="M22.834 9.669v4.663l0.049-0.053 0.002-0.036 0.013-0.055 0.002-0.063 0.002-0.067v-4.114l-0.002-0.067-0.002-0.063-0.013-0.055-0.002-0.036-0.049-0.053z"></path>
<path fill="#c91d22" d="M1.097 9.874v4.594h21.737l-0.053-0.049-0.036-0.002-0.055-0.013-0.063-0.002-0.135-0.002h-21.326v-4.251l-0.002-0.067-0.002-0.063-0.013-0.055-0.002-0.036-0.050-0.053z"></path>
<path fill="#020202" d="M3.84 12.206v0.274l-0.103 0.017-0.107 0.025-0.133 0.021h-0.137l-0.137-0.023-0.137-0.046-0.137-0.067-0.133-0.072-0.038-0.025-0.103-0.036v0.48l0.103 0.017 0.107 0.027 0.065 0.015 0.069 0.019 0.069 0.015 0.069 0.017 0.137 0.021 0.069 0.004 0.069 0.002 0.137-0.006 0.137-0.021 0.069-0.017 0.069-0.015 0.137-0.042 0.069-0.032 0.067-0.038 0.118-0.109 0.082-0.131 0.048-0.137 0.017-0.137-0.023-0.137-0.030-0.067-0.038-0.065-0.109-0.109-0.065-0.040-0.067-0.034-0.137-0.050-0.206-0.057-0.069-0.015-0.069-0.017-0.133-0.021-0.141-0.006-0.069-0.069v-0.274l0.103-0.017 0.107-0.025 0.133-0.021h0.137l0.137 0.027 0.069 0.027 0.069 0.029 0.069 0.038 0.133 0.076 0.038 0.025 0.103 0.048v-0.48l-0.141-0.040-0.133-0.029-0.137-0.027-0.069-0.015-0.137-0.021-0.069-0.004-0.137 0.004-0.137 0.021-0.069 0.017-0.137 0.036-0.069 0.021-0.135 0.071-0.065 0.051-0.109 0.122-0.069 0.135-0.023 0.137 0.006 0.069 0.032 0.137 0.027 0.067 0.082 0.122 0.055 0.051 0.13 0.074 0.137 0.050 0.069 0.019 0.069 0.015 0.137 0.027 0.137 0.034 0.133 0.044 0.038 0.015 0.103 0.030z"></path>
<path fill="#383638" d="M5.6 10.857l0.023 0.023h0.023l-0.023-0.023h-0.023z"></path>
<path fill="#020202" d="M5.691 10.861l-0.137 0.029-0.069 0.013-0.137 0.034-0.069 0.030-0.069 0.038-0.131 0.109-0.057 0.065-0.051 0.067-0.069 0.137-0.019 0.069-0.029 0.137-0.040 0.206-0.008 0.069v0.069l0.019 0.137 0.017 0.069 0.036 0.137 0.021 0.069 0.070 0.137 0.109 0.131 0.065 0.057 0.067 0.051 0.137 0.074 0.137 0.050 0.069 0.019 0.137 0.023 0.069 0.004 0.137-0.004 0.069-0.010 0.137-0.029 0.137-0.036 0.069-0.021 0.137-0.071 0.131-0.109 0.109-0.131 0.070-0.137 0.021-0.069 0.036-0.137 0.017-0.069 0.019-0.137v-0.069l-0.008-0.069-0.040-0.206-0.029-0.137-0.019-0.069-0.069-0.137-0.051-0.067-0.057-0.065-0.131-0.109-0.137-0.071-0.069-0.021-0.137-0.036-0.069-0.017-0.137-0.019h-0.069l-0.137 0.019z"></path>
<path fill="#93908e" d="M6.103 10.834v0zM14.4 10.834v0z"></path>
<path fill="#020202" d="M15.429 12.754v-0.48l-0.103 0.034-0.038 0.023-0.069 0.029-0.065 0.034-0.137 0.053-0.137 0.027-0.069 0.002-0.069-0.004-0.137-0.042-0.067-0.042-0.065-0.053-0.109-0.13-0.069-0.137-0.017-0.069-0.011-0.069v-0.137l0.029-0.137 0.030-0.069 0.090-0.135 0.122-0.116 0.067-0.042 0.137-0.042 0.137-0.002 0.137 0.027 0.137 0.053 0.133 0.063 0.038 0.023 0.103 0.034v-0.48l-0.103-0.017-0.107-0.027-0.065-0.015-0.069-0.019-0.137-0.032-0.069-0.011-0.069-0.010h-0.137l-0.137 0.021-0.069 0.017-0.069 0.015-0.137 0.042-0.137 0.070-0.131 0.109-0.109 0.131-0.071 0.137-0.021 0.069-0.036 0.137-0.017 0.069-0.021 0.137v0.137l0.010 0.069 0.029 0.137 0.015 0.069 0.042 0.137 0.070 0.137 0.109 0.131 0.131 0.109 0.137 0.074 0.137 0.050 0.137 0.032 0.069 0.010 0.069 0.004 0.137-0.004 0.137-0.021 0.069-0.017 0.069-0.015 0.069-0.019 0.065-0.015 0.107-0.027 0.103-0.017z"></path>
<path fill="#93908e" d="M3.017 10.903v0zM4.183 10.903v0z"></path>
<path fill="#a9a9a9" d="M5.28 10.903v0zM6.309 10.903v0z"></path>
<path fill="#020202" d="M7.474 10.903v1.989h0.48v-1.303l0.055 0.103 0.013 0.038 0.057 0.133 0.029 0.069 0.034 0.069 0.059 0.137 0.050 0.133 0.015 0.038 0.030 0.103h0.343l0.030-0.103 0.015-0.038 0.050-0.133 0.059-0.137 0.034-0.069 0.053-0.133 0.027-0.107 0.006-0.103 0.050 0.103 0.002 0.038 0.013 0.069 0.002 0.065 0.002 0.069v0.96h0.549v-1.989h-0.617l-0.055 0.103-0.013 0.038-0.057 0.133-0.029 0.069-0.034 0.069-0.059 0.137-0.053 0.137-0.055 0.133-0.021 0.038-0.034 0.103-0.069-0.103-0.015-0.038-0.040-0.069-0.065-0.133-0.029-0.069-0.030-0.069-0.053-0.137-0.029-0.069-0.050-0.133-0.013-0.038-0.019-0.103h-0.617z"></path>
<path fill="#020202" d="M10.286 10.903v1.989h1.371v-0.411h-0.823v-0.411h0.754v-0.411h-0.754v-0.343h0.823v-0.411h-1.371z"></path>
<path fill="#020202" d="M15.909 10.903v0.343h0.343v1.303h-0.343v0.343h1.234v-0.343h-0.343v-1.303h0.343v-0.343h-1.234zM17.554 10.903v0.411h0.617v1.577h0.549v-1.577h0.617v-0.411h-1.783zM19.543 10.903l0.048 0.103 0.027 0.038 0.042 0.069 0.044 0.065 0.088 0.137 0.040 0.069 0.082 0.137 0.084 0.137 0.040 0.069 0.082 0.137 0.042 0.069 0.074 0.137 0.029 0.069 0.029 0.137 0.006 0.137v0.48h0.549v-0.48l0.006-0.137 0.011-0.069 0.015-0.069 0.027-0.069 0.029-0.069 0.076-0.137 0.084-0.137 0.082-0.137 0.040-0.069 0.088-0.137 0.046-0.069 0.091-0.137 0.044-0.065 0.042-0.069 0.027-0.038 0.048-0.103h-0.549l-0.069 0.103-0.017 0.038-0.078 0.133-0.084 0.137-0.038 0.069-0.038 0.065-0.031 0.069-0.023 0.038-0.034 0.103-0.084-0.103-0.067-0.107-0.038-0.065-0.032-0.069-0.038-0.069-0.074-0.135-0.042-0.063-0.11-0.095-0.065-0.027-0.067-0.015-0.137-0.008h-0.343z"></path>
<path fill="#a9a9a9" d="M5.074 11.040v0zM6.514 11.040v0z"></path>
<path fill="#a9a9a9" d="M2.743 11.109v0zM5.006 11.109v0zM6.583 11.109v0z"></path>
<path fill="#a9a9a9" d="M13.92 11.109v0zM20.297 11.109v0z"></path>
<path fill="#fff" d="M5.693 11.211l-0.122 0.069-0.051 0.051-0.074 0.122-0.027 0.067-0.042 0.137-0.013 0.069-0.010 0.069v0.137l0.023 0.137 0.042 0.137 0.061 0.131 0.040 0.057 0.051 0.051 0.122 0.069 0.135 0.023 0.135-0.023 0.122-0.069 0.051-0.051 0.074-0.122 0.027-0.067 0.042-0.137 0.023-0.137v-0.137l-0.010-0.069-0.013-0.069-0.042-0.137-0.061-0.131-0.040-0.057-0.051-0.051-0.122-0.069-0.135-0.023-0.135 0.023z"></path>
<path fill="#717171" d="M3.977 11.246v0zM8.709 11.246v0z"></path>
<path fill="#a9a9a9" d="M14.606 11.246v0zM14.949 11.246v0z"></path>
<path fill="#4f4d4e" d="M15.017 11.246v0zM19.749 11.246v0z"></path>
<path fill="#a9a9a9" d="M4.869 11.314v0zM6.72 11.314v0zM8.229 11.314v0zM13.783 11.314v0z"></path>
<path fill="#93908e" d="M15.154 11.314v0zM4.183 11.383v0z"></path>
<path fill="#a9a9a9" d="M5.417 11.383v0zM6.171 11.383v0z"></path>
<path fill="#a9a9a9" d="M20.709 11.383v0zM21.257 11.383v0z"></path>
<path fill="#383638" d="M21.189 11.451v0zM3.291 11.52v0z"></path>
<path fill="#717171" d="M5.349 11.52v0zM6.24 11.52v0z"></path>
<path fill="#383638" d="M4.823 11.634v0.046h0.023v-0.046h-0.023z"></path>
<path fill="#a9a9a9" d="M5.349 11.589v0zM6.24 11.589v0z"></path>
<path fill="#383638" d="M6.811 11.634v0.046h0.023v-0.023l-0.023-0.023z"></path>
<path fill="#93908e" d="M3.909 11.657v0zM8.366 11.657v0z"></path>
<path fill="#93908e" d="M8.503 11.726v0zM20.023 11.726v0z"></path>
<path fill="#a9a9a9" d="M4.183 11.794v0zM8.023 11.794v0z"></path>
<path fill="#020202" d="M12.206 11.794v0.343h1.029v-0.343h-1.029z"></path>
<path fill="#717171" d="M8.091 11.931v0zM8.777 11.931v0zM20.16 11.931v0z"></path>
<path fill="#717171" d="M3.154 12v0zM4.32 12v0z"></path>
<path fill="#a9a9a9" d="M5.349 12.069v0zM6.24 12.069v0z"></path>
<path fill="#383638" d="M8.16 12.069v0zM8.709 12.069v0zM13.714 12.069v0z"></path>
<path fill="#717171" d="M5.349 12.137v0zM6.24 12.137v0z"></path>
<path fill="#a9a9a9" d="M8.16 12.137v0zM8.709 12.137v0z"></path>
<path fill="#a9a9a9" d="M5.417 12.274v0zM6.171 12.274v0z"></path>
<path fill="#717171" d="M8.229 12.274v0zM8.64 12.274v0zM15.291 12.274v0z"></path>
<path fill="#a9a9a9" d="M4.869 12.343v0zM6.72 12.343v0z"></path>
<path fill="#a9a9a9" d="M14.606 12.411v0z"></path>
<path fill="#f8cbcd" d="M14.949 12.411v0z"></path>
<path fill="#717171" d="M15.017 12.411v0zM3.154 12.48v0z"></path>
<path fill="#a9a9a9" d="M3.223 12.48v0zM3.634 12.48v0z"></path>
<path fill="#717171" d="M5.623 12.48v0zM5.966 12.48v0z"></path>
<path fill="#a9a9a9" d="M13.851 12.48v0zM5.006 12.549v0zM6.583 12.549v0z"></path>
<path fill="#93908e" d="M13.92 12.549v0z"></path>
<path fill="#97c1b7" d="M4.183 12.617v0z"></path>
<path fill="#a9a9a9" d="M5.074 12.617v0zM6.514 12.617v0z"></path>
<path fill="#717171" d="M13.989 12.617v0z"></path>
<path fill="#97c1b7" d="M14.057 12.686v0z"></path>
<path fill="#a9a9a9" d="M2.743 12.754v0z"></path>
<path fill="#383638" d="M2.811 12.754v0z"></path>
<path fill="#a9a9a9" d="M3.977 12.754v0zM5.28 12.754v0zM6.309 12.754v0z"></path>
<path fill="#93908e" d="M14.194 12.754v0z"></path>
<path fill="#4f4d4e" d="M15.223 12.754v0z"></path>
<path fill="#f8cbcd" d="M15.291 12.754v0zM2.949 12.823v0z"></path>
<path fill="#93908e" d="M3.017 12.823v0z"></path>
<path fill="#4f4d4e" d="M3.086 12.823v0zM3.703 12.823v0z"></path>
<path fill="#93908e" d="M3.771 12.823v0zM5.486 12.823v0z"></path>
<path fill="#383638" d="M6.034 12.823v0z"></path>
<path fill="#93908e" d="M6.103 12.823v0zM14.4 12.823v0z"></path>
<path fill="#383638" d="M14.949 12.823v0z"></path>
<path fill="#717171" d="M15.017 12.823v0z"></path>
<path fill="#97c1b7" d="M15.086 12.823v0z"></path>
<path fill="#eb114f" d="M22.949 14.286l0.023 0.023h0.023l-0.023-0.023h-0.023z"></path>
<path fill="#ce525a" d="M23.611 14.583v0.046h0.023v-0.046h-0.023z"></path>
<path fill="#4f4d4e" d="M0.137 14.606v0z"></path>
<path fill="#f36875" d="M0.411 14.606v0z"></path>
<path fill="#717171" d="M0.069 14.674v0z"></path>
<path fill="#f59191" d="M0.411 14.674v0zM23.589 14.674v0z"></path>
<path fill="#020202" d="M23.863 14.674l-0.019 0.103-0.015 0.038-0.069 0.133-0.109 0.135-0.131 0.122-0.069 0.051-0.137 0.069-0.137 0.034-0.069 0.013-0.137 0.029-0.069 0.011-0.069 0.010-0.137 0.006h-21.737l0.053 0.050 0.036 0.002 0.055 0.013 0.063 0.002 0.135 0.002 21.737-0.006 0.137-0.023 0.069-0.019 0.137-0.050 0.137-0.074 0.069-0.051 0.067-0.057 0.122-0.131 0.051-0.069 0.067-0.135 0.015-0.063-0.002-0.055 0.002-0.036-0.048-0.053z"></path>
<path fill="#a9a9a9" d="M0.069 14.743v0zM23.931 14.743v0z"></path>
<path fill="#4f4d4e" d="M0.206 14.811v0z"></path>
<path fill="#f59191" d="M0.48 14.811v0z"></path>
<path fill="#f36875" d="M23.52 14.811v0z"></path>
<path fill="#4f4d4e" d="M23.794 14.811v0z"></path>
<path fill="#717171" d="M0.137 14.88v0z"></path>
<path fill="#ce525a" d="M0.549 14.88v0zM23.451 14.88v0z"></path>
<path fill="#717171" d="M23.863 14.88v0z"></path>
<path fill="#383638" d="M0.274 14.949v0z"></path>
<path fill="#ce525a" d="M0.617 14.949v0zM23.383 14.949v0z"></path>
<path fill="#383638" d="M23.726 14.949v0z"></path>
<path fill="#93908e" d="M0.206 15.017v0zM0.343 15.017v0z"></path>
<path fill="#f59191" d="M0.686 15.017v0z"></path>
<path fill="#f36875" d="M23.314 15.017v0z"></path>
<path fill="#a9a9a9" d="M23.657 15.017v0z"></path>
<path fill="#93908e" d="M23.794 15.017v0z"></path>
<path fill="#4f4d4e" d="M0.274 15.086v0z"></path>
<path fill="#93908e" d="M0.411 15.086v0z"></path>
<path fill="#f59191" d="M0.823 15.086v0z"></path>
<path fill="#c91d22" d="M0.891 15.086l0.053 0.050 0.036 0.002 0.055 0.013 0.063 0.002 0.135 0.002h21.943l-0.053-0.049-0.036-0.002-0.055-0.013-0.063-0.002-0.135-0.002h-21.943z"></path>
<path fill="#fdb1b5" d="M23.177 15.086v0z"></path>
<path fill="#a9a9a9" d="M23.589 15.086v0z"></path>
<path fill="#4f4d4e" d="M23.726 15.086v0z"></path>
<path fill="#383638" d="M0.343 15.154v0z"></path>
<path fill="#93908e" d="M0.48 15.154v0zM23.52 15.154v0z"></path>
<path fill="#383638" d="M23.657 15.154v0z"></path>
<path fill="#4f4d4e" d="M0.411 15.223v0z"></path>
<path fill="#383638" d="M0.549 15.223v0zM23.451 15.223v0z"></path>
<path fill="#4f4d4e" d="M23.589 15.223v0z"></path>
<path fill="#93908e" d="M0.48 15.291v0z"></path>
<path fill="#4f4d4e" d="M0.686 15.291v0z"></path>
<path fill="#f8cbcd" d="M0.754 15.291v0z"></path>
<path fill="#a9a9a9" d="M23.246 15.291v0z"></path>
<path fill="#4f4d4e" d="M23.314 15.291v0z"></path>
<path fill="#93908e" d="M23.52 15.291v0z"></path>
<path fill="#717171" d="M0.617 15.36v0z"></path>
<path fill="#383638" d="M0.891 15.36v0.137h0.069l0.069-0.137h-0.137z"></path>
<path fill="#717171" d="M1.029 15.36l0.053 0.050 0.036 0.002 0.055 0.013 0.063 0.002 0.135 0.002h21.669l-0.053-0.049-0.036-0.002-0.055-0.013-0.063-0.002-0.135-0.002h-21.669zM23.383 15.36v0z"></path>
<path fill="#97c1b7" d="M0.754 15.429v0z"></path>
<path fill="#717171" d="M0.823 15.429v0zM23.177 15.429v0z"></path>
<path fill="#f8cbcd" d="M23.246 15.429v0z"></path>
</svg>
