<!-- Generated by IcoMoon.io -->
<svg version="1.1" xmlns="http://www.w3.org/2000/svg" width="24" height="24" viewBox="0 0 24 24">
<title>information--end-urban-area--FR-EB20-1</title>
<path fill="#fff" d="M0 0v24h24v-10.149l-0.057 0.053-0.017 0.036-0.038 0.055-0.040 0.063-0.046 0.065-0.103 0.124-0.116 0.105-0.131 0.088-0.137 0.069-0.069 0.027-0.137 0.042-0.137 0.023-0.069 0.004-0.137 0.002-21.669-0.006-0.137-0.023-0.137-0.042-0.069-0.027-0.137-0.074-0.069-0.051-0.135-0.122-0.065-0.067-0.109-0.137-0.074-0.137-0.027-0.069-0.042-0.137-0.023-0.137-0.004-0.069-0.002-0.069v-2.88l0.006-0.137 0.023-0.137 0.046-0.137 0.069-0.137 0.091-0.135 0.114-0.124 0.065-0.055 0.135-0.091 0.137-0.069 0.069-0.025 0.069-0.021 0.137-0.023 0.069-0.004 0.137-0.002 22.011 0.032 0.069 0.027 0.069 0.029 0.137 0.082 0.135 0.11 0.122 0.131 0.091 0.133 0.027 0.038 0.036 0.103 0.049-0.053 0.002-0.036 0.013-0.055 0.002-0.063 0.002-0.067v-9.874h-24z"></path>
<path fill="#030303" d="M0.891 9.495l-0.069 0.027-0.137 0.063-0.137 0.074-0.067 0.042-0.122 0.11-0.053 0.065-0.082 0.135-0.029 0.069-0.027 0.069-0.027 0.137-0.004 0.069-0.002 0.137v3.154l0.002 0.069 0.004 0.069 0.029 0.137 0.067 0.137 0.048 0.067 0.048 0.065 0.105 0.114 0.116 0.091 0.131 0.069 0.069 0.025 0.069 0.021 0.137 0.023 0.137 0.006 22.011-0.006 0.137-0.023 0.137-0.042 0.137-0.061 0.067-0.040 0.122-0.109 0.053-0.065 0.082-0.135 0.029-0.069 0.027-0.069 0.015-0.069 0.011-0.069 0.006-0.137v-3.223l-0.002-0.137-0.015-0.137-0.017-0.069-0.069-0.137-0.109-0.135-0.065-0.065-0.135-0.109-0.137-0.070-0.069-0.021-0.137-0.036-0.069-0.017-0.137-0.021-0.137-0.006-21.806 0.006-0.137 0.027z"></path>
<path fill="#bfbfbf" d="M23.246 9.463v0zM0.617 9.531v0z"></path>
<path fill="#abadad" d="M23.52 9.6v0zM0.411 9.669v0z"></path>
<path fill="#4a4a4a" d="M0.96 9.806l0.053 0.050 0.036 0.002 0.055 0.013 0.063 0.002 0.135 0.002h21.6l-0.053-0.050-0.036-0.002-0.055-0.013-0.063-0.002-0.135-0.002h-21.6z"></path>
<path fill="#fff" d="M0.48 13.509l0.141-0.040 0.133-0.025 0.137-0.019 0.137-0.027 0.137-0.021 0.137-0.011 0.137-0.021 0.069-0.015 0.137-0.023 0.069-0.008 0.137-0.023 0.137-0.027 0.069-0.010 0.206-0.011 0.069-0.010 0.411-0.080 0.069-0.015 0.274-0.053 0.133-0.027 0.038-0.010 0.103-0.006-0.053-0.049-0.032-0.002-0.055-0.013-0.133-0.004-0.069-0.069v-0.48l0.103 0.046 0.038 0.023 0.133 0.063 0.069 0.027 0.137 0.048 0.137 0.040 0.137 0.021 0.137-0.010 0.065-0.013 0.069-0.029 0.141-0.078v-0.137l-0.103-0.067-0.107-0.042-0.065-0.017-0.069-0.021-0.137-0.034-0.137-0.036-0.069-0.021-0.137-0.071-0.135-0.109-0.063-0.065-0.095-0.135-0.040-0.137-0.002-0.069 0.027-0.137 0.069-0.135 0.051-0.065 0.057-0.057 0.131-0.091 0.137-0.061 0.137-0.042 0.137-0.023 0.069-0.004 0.137-0.002h0.069l0.137 0.006 0.137 0.023 0.069 0.019 0.133 0.044 0.038 0.015 0.103 0.030v0.48l-0.103-0.048-0.038-0.025-0.133-0.072-0.069-0.032-0.137-0.050-0.069-0.019-0.137-0.021-0.137 0.010-0.065 0.013-0.069 0.029-0.141 0.078v0.137l0.103 0.067 0.107 0.040 0.065 0.015 0.069 0.015 0.069 0.013 0.137 0.034 0.137 0.048 0.137 0.061 0.131 0.082 0.109 0.11 0.069 0.131 0.017 0.069 0.008 0.137-0.034 0.137-0.032 0.067-0.086 0.118-0.027 0.036-0.086 0.053 0.053 0.048 0.036-0.002 0.055 0.004 0.13-0.023 0.069-0.011 0.069-0.010 0.133-0.006h0.141l-0.008-0.103-0.034-0.107-0.059-0.133-0.030-0.069-0.025-0.069-0.021-0.069-0.013-0.069-0.013-0.137v-0.137l0.004-0.069 0.023-0.137 0.046-0.137 0.032-0.069 0.036-0.069 0.091-0.131 0.114-0.114 0.065-0.048 0.067-0.044 0.137-0.069 0.137-0.046 0.137-0.023 0.137-0.006 0.069 0.002 0.137 0.013 0.069 0.013 0.069 0.021 0.137 0.057 0.069 0.036 0.131 0.091 0.114 0.114 0.048 0.065 0.044 0.067 0.069 0.137 0.046 0.137 0.023 0.137 0.004 0.069v0.137l-0.004 0.069-0.021 0.137-0.015 0.065-0.011 0.069-0.010 0.038-0.006 0.103 0.103-0.017 0.107-0.025 0.129-0.021 0.141-0.006v-1.44h0.617l0.019 0.103 0.040 0.107 0.027 0.065 0.034 0.069 0.059 0.137 0.053 0.137 0.030 0.067 0.027 0.063 0.038 0.055 0.015 0.036 0.069 0.053 0.067-0.103 0.013-0.038 0.032-0.069 0.051-0.133 0.055-0.137 0.029-0.069 0.048-0.133 0.019-0.069 0.011-0.038 0.017-0.103h0.686v1.029h0.48l0.069-0.069v-0.96h1.371v0.411h-0.823v0.343h0.686l0.137-0.002 0.069-0.004 0.137-0.021 0.137-0.027 0.069-0.010 0.137-0.011 0.069-0.010 0.069-0.011 0.137-0.029 0.206-0.040 0.137-0.032 0.069-0.019 0.137-0.032 0.069-0.013 0.137-0.029 0.067-0.019 0.124-0.069 0.057-0.050 0.11-0.109 0.059-0.053 0.131-0.091 0.137-0.069 0.069-0.025 0.069-0.021 0.069-0.013 0.069-0.010 0.137-0.006h0.069l0.137 0.006 0.137 0.023 0.135 0.048 0.063 0.032 0.091 0.070 0.053 0.095 0.101-0.008 0.086-0.038 0.063-0.065 0.025-0.095h0.891l0.137-0.002 0.069-0.004 0.137-0.021 0.069-0.015 0.274-0.053 0.069-0.015 0.206-0.040 0.137-0.029 0.137-0.021 0.137-0.011 0.069-0.010 0.411-0.080 0.069-0.015 0.206-0.040 0.137-0.029 0.137-0.021 0.137-0.011 0.137-0.021 0.069-0.015 0.274-0.053 0.069-0.015 0.206-0.040 0.069-0.015 0.069-0.019 0.137-0.042 0.069-0.019 0.137-0.023 0.137-0.011 0.137-0.021 0.137-0.029 0.206-0.040 0.069-0.015 0.206-0.040 0.137-0.029 0.069-0.011 0.069-0.010 0.206-0.011 0.137-0.021 0.069-0.015 0.274-0.053 0.069-0.015 0.137-0.021 0.137-0.011 0.069-0.010 0.137-0.027 0.133-0.021 0.069-0.004 0.141-0.002-0.053-0.050-0.036-0.002-0.055-0.013-0.13-0.004-21.12 0.006-0.137 0.029-0.135 0.069-0.122 0.109-0.051 0.065-0.069 0.135-0.017 0.069-0.011 0.069-0.006 0.137v2.949z"></path>
<path fill="#f99a9c" d="M22.423 9.874l0.049 0.050 0.036 0.002 0.12 0.017-0.049-0.050-0.036-0.002-0.12-0.017z"></path>
<path fill="#e75f67" d="M22.674 9.897l0.023 0.023h0.023v-0.023h-0.046z"></path>
<path fill="#f21924" d="M0.549 13.509l0.017 0.141 0.017 0.069 0.069 0.133 0.109 0.13 0.131 0.095 0.137 0.042 0.137 0.008h0.069l0.137-0.006 0.069-0.010 0.549-0.107 0.069-0.010 0.069-0.004 0.137-0.004 0.069-0.004 0.137-0.021 0.069-0.015 0.274-0.053 0.069-0.015 0.137-0.021 0.069-0.004 0.069-0.002 0.137-0.002 0.069-0.004 0.137-0.021 0.137-0.027 0.069-0.010 0.137-0.011 0.069-0.010 0.549-0.107 0.137-0.013 0.137-0.004 0.069-0.004 0.137-0.021 0.137-0.027 0.069-0.010 0.137-0.011 0.137-0.021 0.069-0.015 0.274-0.053 0.069-0.015 0.137-0.023 0.069-0.008 0.137-0.023 0.069-0.015 0.137-0.021 0.069-0.004 0.069-0.002 0.137-0.002 0.069-0.004 0.137-0.021 0.137-0.027 0.069-0.010 0.137-0.011 0.069-0.010 0.137-0.027 0.137-0.021 0.069-0.004 0.137-0.004 0.137-0.013 0.137-0.027 0.137-0.021 0.137-0.011 0.137-0.021 0.069-0.015 0.411-0.080 0.069-0.010 0.137-0.011 0.069-0.010 0.137-0.027 0.137-0.021 0.137-0.011 0.137-0.021 0.069-0.015 0.274-0.053 0.069-0.015 0.274-0.053 0.137-0.032 0.069-0.019 0.069-0.015 0.137-0.029 0.069-0.010 0.206-0.011 0.137-0.021 0.069-0.015 0.137-0.021 0.069-0.004 0.137-0.002 0.069-0.002 0.069-0.004 0.137-0.021 0.137-0.027 0.069-0.010 0.137-0.011 0.069-0.010 0.411-0.080 0.069-0.015 0.274-0.053 0.137-0.032 0.069-0.019 0.137-0.034 0.069-0.015 0.069-0.019 0.137-0.032 0.274-0.053 0.069-0.015 0.137-0.021 0.274-0.011 0.137-0.021 0.137-0.027 0.069-0.010 0.137-0.011 0.069-0.010 0.411-0.080 0.137-0.029 0.206-0.040 0.137-0.032 0.069-0.019 0.069-0.015 0.069-0.017 0.206-0.040 0.137-0.029 0.137-0.023 0.069-0.008 0.137-0.023 0.069-0.015 0.137-0.021 0.069-0.004 0.069-0.002 0.137-0.002 0.069-0.004 0.137-0.021 0.069-0.015 0.137-0.021 0.206-0.011 0.069-0.010 0.411-0.080 0.069-0.015 0.274-0.053 0.069-0.015 0.274-0.053 0.069-0.015 0.274-0.053 0.069-0.015 0.274-0.053 0.069-0.015 0.137-0.021 0.206-0.011 0.137-0.021 0.137-0.027 0.137-0.019 0.137-0.023 0.137-0.029 0.206-0.040 0.069-0.015 0.274-0.053 0.069-0.015 0.206-0.040 0.069-0.015 0.137-0.040 0.137-0.042 0.135-0.038 0.063-0.017 0.055-0.030 0.036-0.011 0.053-0.067 0.069 0.069h0.137l0.053-0.078 0.036-0.013 0.055-0.027 0.13-0.017 0.137-0.002 0.069-0.002 0.069-0.004 0.137-0.021 0.065-0.015 0.069-0.011 0.038-0.010 0.103-0.006-0.002-0.103-0.021-0.105-0.027-0.061-0.088-0.116-0.048-0.050-0.040-0.057-0.025-0.029-0.025-0.097h-0.141l-0.133 0.002-0.069 0.004-0.137 0.021-0.069 0.015-0.411 0.080-0.069 0.010-0.137 0.011-0.069 0.010-0.137 0.027-0.137 0.023-0.069 0.008-0.137 0.023-0.137 0.027-0.069 0.010-0.206 0.011-0.069 0.011-0.069 0.015-0.069 0.025-0.137 0.048-0.069 0.015-0.069 0.011-0.206 0.011-0.137 0.021-0.069 0.015-0.137 0.021-0.206 0.011-0.137 0.021-0.137 0.027-0.069 0.010-0.137 0.011-0.069 0.010-0.411 0.080-0.069 0.015-0.206 0.040-0.137 0.029-0.137 0.021-0.137 0.011-0.137 0.021-0.137 0.029-0.206 0.040-0.069 0.015-0.206 0.040-0.137 0.029-0.137 0.021-0.137 0.011-0.137 0.021-0.137 0.029-0.206 0.040-0.069 0.015-0.274 0.053-0.069 0.015-0.274 0.053-0.069 0.015-0.137 0.021-0.137 0.011-0.137 0.021-0.137 0.027-0.069 0.010-0.137 0.011-0.069 0.010-0.137 0.027-0.137 0.023-0.069 0.008-0.137 0.023-0.137 0.027-0.069 0.010-0.137 0.006h-0.069l-0.137 0.006-0.137 0.021-0.137 0.027-0.069 0.010-0.137 0.011-0.137 0.021-0.069 0.015-0.274 0.053-0.069 0.015-0.274 0.053-0.137 0.032-0.069 0.019-0.137 0.032-0.206 0.040-0.137 0.029-0.137 0.021-0.137 0.011-0.069 0.010-0.411 0.080-0.069 0.015-0.137 0.023-0.137 0.019-0.069 0.011-0.137 0.027-0.069 0.010-0.206 0.011-0.069 0.010-0.549 0.107-0.069 0.010-0.137 0.011-0.069 0.010-0.137 0.027-0.137 0.021-0.137 0.011-0.069 0.010-0.411 0.080-0.069 0.015-0.274 0.053-0.137 0.032-0.069 0.019-0.137 0.032-0.206 0.040-0.137 0.029-0.137 0.021-0.069 0.004-0.137 0.004-0.069 0.004-0.069 0.010-0.069 0.011-0.137 0.027-0.069 0.010-0.137 0.011-0.069 0.010-0.069 0.011-0.137 0.027-0.069 0.010-0.137 0.011-0.137 0.021-0.069 0.015-0.411 0.080-0.069 0.010-0.069 0.004-0.137 0.004-0.069 0.004-0.069 0.010-0.137 0.027-0.137 0.021-0.137 0.011-0.137 0.021-0.069 0.015-0.274 0.053-0.069 0.015-0.137 0.021-0.069 0.004-0.069 0.002-0.137 0.002-0.069 0.004-0.137 0.021-0.069 0.015-0.137 0.021-0.206 0.011-0.069 0.010-0.411 0.080-0.069 0.015-0.411 0.080-0.069 0.010-0.206 0.011-0.069 0.010-0.069 0.013-0.274 0.080-0.137 0.025-0.069 0.008-0.137 0.023-0.069 0.017-0.069 0.015-0.206 0.051-0.133 0.021-0.107 0.006h-0.103z"></path>
<path fill="#840f13" d="M23.246 9.874v0.069l0.137 0.069-0.069-0.137h-0.069z"></path>
<path fill="#f99a9c" d="M22.057 9.966l0.023 0.023h0.023l-0.023-0.023h-0.023z"></path>
<path fill="#e75f67" d="M22.194 9.966l0.023 0.023h0.023l-0.023-0.023h-0.023z"></path>
<path fill="#b12e36" d="M22.331 9.966l0.023 0.023h0.023l-0.023-0.023h-0.023z"></path>
<path fill="#e3293b" d="M23.246 9.943l0.025 0.086 0.025 0.029 0.040 0.053 0.095 0.112 0.040 0.061 0.042 0.105 0.008 0.103 0.050-0.053v-0.036l0.010-0.055-0.025-0.128-0.069-0.122-0.105-0.091-0.034-0.027-0.101-0.036z"></path>
<path fill="#e5c7cb" d="M21.531 10.011l0.049 0.050 0.036 0.002 0.12 0.017-0.049-0.050-0.036-0.002-0.12-0.017z"></path>
<path fill="#e75f67" d="M21.737 10.011l0.049 0.050 0.036 0.002 0.12 0.017-0.049-0.050-0.036-0.002-0.12-0.017z"></path>
<path fill="#f99a9c" d="M21.234 10.103l0.023 0.023h0.023l-0.023-0.023h-0.023z"></path>
<path fill="#e75f67" d="M21.326 10.080l0.049 0.050 0.036 0.002 0.12 0.017-0.049-0.050-0.036-0.002-0.12-0.017z"></path>
<path fill="#e5c7cb" d="M20.64 10.149l0.049 0.050 0.036 0.002 0.12 0.017-0.049-0.050-0.036-0.002-0.12-0.017z"></path>
<path fill="#e75f67" d="M20.891 10.171l0.023 0.023h0.023l-0.023-0.023h-0.023z"></path>
<path fill="#bfbfbf" d="M23.931 10.149v0zM0.069 10.217v0z"></path>
<path fill="#e5c7cb" d="M20.343 10.24l0.023 0.023h0.023l-0.023-0.023h-0.023z"></path>
<path fill="#e75f67" d="M20.48 10.24l0.023 0.023h0.023v-0.023h-0.046z"></path>
<path fill="#b12e36" d="M20.571 10.217l0.053 0.050 0.032 0.002 0.055 0.013 0.133 0.004-0.053-0.050-0.032-0.002-0.055-0.013-0.133-0.004z"></path>
<path fill="#e3293b" d="M23.246 10.217v0.137h0.137v-0.137h-0.137z"></path>
<path fill="#4a4a4a" d="M23.931 10.217v0.206l0.048-0.051v-0.103l-0.048-0.051z"></path>
<path fill="#423b3c" d="M0.069 10.286v3.36l0.050-0.053 0.002-0.036 0.013-0.055 0.002-0.063 0.002-0.135v-2.674l-0.002-0.135-0.002-0.063-0.013-0.055-0.002-0.036-0.050-0.053z"></path>
<path fill="#f99a9c" d="M20 10.309l0.023 0.023h0.023v-0.023h-0.046z"></path>
<path fill="#e3293b" d="M20.091 10.286l0.049 0.050 0.036 0.002 0.12 0.017-0.049-0.050-0.036-0.002-0.12-0.017z"></path>
<path fill="#840f13" d="M23.589 10.286v0.206l0.048-0.051v-0.103l-0.048-0.051z"></path>
<path fill="#f99a9c" d="M19.52 10.377l0.023 0.023h0.023l-0.023-0.023h-0.023z"></path>
<path fill="#e75f67" d="M19.657 10.377l0.023 0.023h0.023l-0.023-0.023h-0.023z"></path>
<path fill="#4a4a4a" d="M0.411 10.423v3.086l0.050-0.053 0.002-0.036 0.013-0.055 0.002-0.063 0.002-0.135v-2.4l-0.002-0.135-0.002-0.063-0.013-0.055-0.002-0.036-0.050-0.053z"></path>
<path fill="#273231" d="M23.931 10.423v3.291l0.050-0.053 0.002-0.036 0.013-0.055 0.002-0.063 0.002-0.135v-2.606l-0.002-0.135-0.002-0.063-0.013-0.055-0.002-0.036-0.050-0.053z"></path>
<path fill="#b12e36" d="M23.291 10.514l0.023 0.023h0.023v-0.023h-0.046z"></path>
<path fill="#e75f67" d="M23.383 10.491l0.053 0.050 0.032 0.002 0.055 0.013 0.133 0.004-0.053-0.050-0.032-0.002-0.055-0.013-0.133-0.004z"></path>
<path fill="#e3293b" d="M22.56 10.56l0.053 0.050 0.036 0.002 0.055 0.013 0.126 0.004h0.21l-0.053-0.050-0.036-0.002-0.055-0.013-0.126-0.004h-0.21z"></path>
<path fill="#f99a9c" d="M23.086 10.583l0.023 0.023h0.023l-0.023-0.023h-0.023z"></path>
<path fill="#e5c7cb" d="M23.223 10.583v0.023h0.046l-0.023-0.023h-0.023z"></path>
<path fill="#fff" d="M22.423 10.766v-0.137l-0.103 0.034-0.038 0.021-0.133 0.051-0.137 0.040-0.069 0.017-0.137 0.042-0.137 0.040-0.137 0.029-0.137 0.027-0.069 0.015-0.274 0.053-0.069 0.015-0.411 0.080-0.069 0.011-0.069 0.010-0.135 0.044-0.122 0.095-0.053 0.063-0.044 0.067-0.168 0.274-0.082 0.137-0.040 0.069-0.131 0.206-0.040 0.069-0.032 0.069-0.023 0.069-0.019 0.137-0.002 0.137v0.48h-0.549v-0.48l-0.006-0.137-0.011-0.069-0.015-0.069-0.027-0.069-0.067-0.137-0.038-0.069-0.088-0.137-0.046-0.069-0.086-0.133-0.036-0.069-0.025-0.038-0.036-0.103-0.103 0.017-0.107 0.025-0.065 0.013-0.206 0.040-0.069 0.015-0.133 0.021-0.069 0.004-0.141 0.002v1.44h-0.549v-1.371l-0.141 0.006-0.133 0.021-0.069 0.015-0.137 0.023-0.069 0.008-0.137 0.023-0.069 0.015-0.137 0.027-0.133 0.029-0.141 0.040v0.823h0.343v0.343h-1.234v-0.343h0.343v-0.686l-0.141 0.006-0.133 0.021-0.137 0.027-0.069 0.010-0.137 0.011-0.069 0.010-0.137 0.027-0.137 0.021-0.069 0.004-0.137 0.004-0.069 0.004-0.137 0.021-0.133 0.027-0.107 0.013-0.103 0.002 0.019 0.101 0.046 0.091 0.038 0.049 0.109 0.082 0.131 0.055 0.069 0.013 0.069 0.008 0.137-0.017 0.069-0.019 0.137-0.048 0.133-0.055 0.038-0.021 0.103-0.034v0.48l-0.103 0.030-0.038 0.015-0.133 0.044-0.069 0.019-0.069 0.013-0.137 0.013-0.137 0.002-0.069-0.002-0.137-0.013-0.069-0.013-0.069-0.019-0.137-0.050-0.137-0.074-0.131-0.109-0.109-0.128-0.040-0.069-0.027-0.038-0.036-0.103-0.141 0.002-0.069 0.004-0.133 0.021-0.069 0.015-0.274 0.053-0.069 0.015-0.137 0.021-0.137 0.011-0.137 0.021-0.069 0.015-0.137 0.021-0.069 0.004-0.133 0.002h-0.141v0.411h-1.371v-0.137l-0.103 0.002-0.107 0.013-0.065 0.011-0.137 0.032-0.069 0.019-0.069 0.015-0.137 0.029-0.069 0.010-0.137 0.006h-0.069l-0.137 0.006-0.069 0.010-0.411 0.080-0.069 0.015-0.137 0.021-0.137 0.011-0.069 0.010-0.137 0.027-0.137 0.021-0.069 0.004-0.137 0.004-0.069 0.004-0.137 0.021-0.137 0.027-0.069 0.010-0.137 0.011-0.069 0.010-0.137 0.027-0.137 0.021-0.137 0.006h-0.069l-0.137 0.006-0.069 0.010-0.137 0.027-0.069 0.011-0.137 0.019-0.137 0.023-0.069 0.015-0.411 0.080-0.069 0.010-0.137 0.011-0.069 0.010-0.137 0.027-0.137 0.021-0.274 0.011-0.137 0.021-0.069 0.015-0.411 0.080-0.069 0.010-0.137 0.011-0.137 0.021-0.137 0.029-0.206 0.040-0.069 0.015-0.206 0.040-0.137 0.029-0.069 0.011-0.069 0.010-0.137 0.011-0.069 0.010-0.137 0.027-0.069 0.011-0.069 0.010-0.137 0.011-0.069 0.010-0.137 0.027-0.137 0.021-0.065 0.004-0.069 0.002h-0.141l0.053 0.049 0.036 0.002 0.055 0.013 0.13 0.004 21.326-0.006 0.137-0.027 0.137-0.055 0.067-0.040 0.065-0.042 0.109-0.11 0.069-0.131 0.029-0.137 0.006-0.137v-2.949l-0.141 0.006-0.133 0.021-0.069 0.015-0.137 0.023-0.069 0.008-0.137 0.023-0.069 0.015-0.137 0.023-0.133 0.021-0.038 0.002-0.103 0.050z"></path>
<path fill="#949494" d="M23.589 10.56v3.086l0.049-0.053 0.002-0.036 0.013-0.055 0.002-0.063 0.002-0.135v-2.4l-0.002-0.135-0.002-0.063-0.013-0.055-0.002-0.036-0.049-0.053z"></path>
<path fill="#e75f67" d="M22.56 10.629l0.049 0.050 0.036 0.002 0.12 0.017-0.049-0.050-0.036-0.002-0.12-0.017z"></path>
<path fill="#e5c7cb" d="M22.811 10.651l0.023 0.023h0.023l-0.023-0.023h-0.023zM22.423 10.697v0z"></path>
<path fill="#030303" d="M4.183 12.343v0.274l-0.103 0.017-0.107 0.025-0.133 0.021h-0.137l-0.137-0.023-0.137-0.046-0.137-0.067-0.133-0.072-0.038-0.025-0.103-0.036v0.48l0.103 0.017 0.107 0.025 0.133 0.021 0.069 0.004 0.137 0.002h0.411l0.069-0.002 0.069-0.004 0.137-0.027 0.137-0.055 0.067-0.040 0.063-0.042 0.101-0.11 0.036-0.065 0.048-0.135 0.017-0.137-0.023-0.137-0.030-0.067-0.038-0.065-0.109-0.109-0.065-0.040-0.067-0.034-0.137-0.050-0.069-0.021-0.069-0.017-0.069-0.019-0.137-0.032-0.133-0.021-0.141-0.006-0.069-0.069v-0.274l0.103-0.017 0.107-0.025 0.133-0.021h0.137l0.137 0.027 0.069 0.027 0.069 0.029 0.069 0.038 0.133 0.076 0.038 0.025 0.103 0.048v-0.48l-0.141-0.040-0.133-0.029-0.137-0.027-0.069-0.015-0.137-0.021-0.069-0.004-0.137 0.004-0.137 0.021-0.069 0.017-0.137 0.036-0.069 0.021-0.135 0.070-0.065 0.051-0.109 0.122-0.069 0.135-0.023 0.137 0.006 0.069 0.032 0.137 0.027 0.067 0.082 0.122 0.055 0.051 0.13 0.074 0.137 0.050 0.069 0.019 0.069 0.015 0.137 0.027 0.137 0.034 0.133 0.044 0.038 0.015 0.103 0.030z"></path>
<path fill="#273231" d="M5.737 10.994l0.023 0.023h0.023l-0.023-0.023h-0.023z"></path>
<path fill="#030303" d="M5.76 12.754l-0.025-0.103-0.023-0.038-0.038-0.069-0.088-0.133-0.067-0.137-0.029-0.137-0.004-0.069v-0.137l0.015-0.137 0.017-0.069 0.069-0.137 0.109-0.13 0.131-0.095 0.137-0.034 0.137 0.034 0.067 0.042 0.122 0.116 0.090 0.135 0.030 0.069 0.017 0.069 0.015 0.137 0.002 0.069-0.006 0.137-0.011 0.069-0.017 0.069-0.029 0.069-0.070 0.133-0.025 0.038-0.048 0.103 0.141-0.002 0.069-0.004 0.133-0.021 0.065-0.015 0.069-0.011 0.038-0.010 0.103-0.006 0.069-0.069 0.006-0.103 0.010-0.038 0.011-0.069 0.015-0.065 0.019-0.137v-0.069l-0.019-0.137-0.015-0.069-0.013-0.069-0.029-0.137-0.019-0.069-0.069-0.137-0.051-0.067-0.057-0.065-0.131-0.109-0.137-0.070-0.069-0.021-0.137-0.036-0.069-0.017-0.137-0.019h-0.069l-0.069 0.008-0.206 0.040-0.137 0.029-0.069 0.019-0.137 0.069-0.131 0.109-0.057 0.065-0.051 0.067-0.069 0.137-0.019 0.069-0.029 0.137-0.040 0.206-0.008 0.069v0.069l0.019 0.137 0.017 0.069 0.015 0.069 0.042 0.137 0.070 0.13 0.109 0.095 0.065 0.027 0.067 0.015 0.137 0.008h0.274z"></path>
<path fill="#030303" d="M13.166 11.451l0.103-0.006 0.038-0.010 0.069-0.011 0.133-0.027 0.069-0.010 0.137-0.011 0.069-0.010 0.137-0.027 0.137-0.021 0.069-0.004 0.137-0.002 0.069-0.002 0.069-0.004 0.135-0.023 0.063-0.017 0.055-0.025 0.036-0.011 0.053-0.055-0.053-0.055-0.036-0.011-0.055-0.025-0.13-0.036-0.206-0.051-0.137-0.021h-0.137l-0.137 0.021-0.069 0.017-0.069 0.015-0.137 0.042-0.137 0.070-0.13 0.105-0.055 0.065-0.036 0.036-0.053 0.103z"></path>
<path fill="#abadad" d="M5.417 11.040v0zM6.446 11.040v0z"></path>
<path fill="#030303" d="M7.406 11.040v1.44l0.141-0.006 0.129-0.021 0.107-0.025 0.103-0.017v-0.686l0.055 0.103 0.013 0.038 0.057 0.133 0.029 0.069 0.063 0.133 0.023 0.038 0.034 0.103 0.103-0.017 0.107-0.025 0.129-0.021 0.141-0.006 0.069-0.103 0.015-0.038 0.038-0.069 0.051-0.129 0.027-0.107 0.006-0.103 0.050 0.103 0.002 0.038 0.013 0.069 0.002 0.061 0.002 0.069v0.141l0.141-0.040 0.133-0.023 0.065-0.004 0.069-0.002h0.141v-1.097h-0.617l-0.055 0.103-0.013 0.038-0.057 0.133-0.029 0.069-0.034 0.069-0.059 0.137-0.053 0.137-0.055 0.133-0.021 0.038-0.034 0.103-0.069-0.103-0.015-0.038-0.040-0.069-0.065-0.133-0.029-0.069-0.030-0.069-0.053-0.137-0.029-0.069-0.050-0.133-0.013-0.038-0.019-0.103h-0.617z"></path>
<path fill="#030303" d="M10.011 11.040v0.96l0.141-0.006 0.133-0.021 0.069-0.015 0.137-0.021 0.206-0.011 0.069-0.010 0.137-0.027 0.133-0.021 0.069-0.004 0.141-0.002-0.053-0.050-0.036-0.002-0.055-0.013-0.063-0.002-0.135-0.002h-0.343v-0.343h0.823v-0.411h-1.371z"></path>
<path fill="#030303" d="M15.017 11.040v0.137h0.141l0.069-0.002 0.065-0.004 0.137-0.021 0.069-0.015 0.137-0.021 0.065-0.004 0.069-0.002h0.141l-0.053-0.050-0.036-0.002-0.055-0.013-0.13-0.004h-0.617z"></path>
<path fill="#abadad" d="M5.211 11.177v0zM6.651 11.177v0z"></path>
<path fill="#030303" d="M19.337 11.794l-0.084-0.103-0.065-0.103-0.040-0.065-0.017-0.038-0.069-0.103-0.141 0.002-0.069 0.004-0.129 0.021-0.107 0.025-0.103 0.017 0.036 0.103 0.025 0.038 0.036 0.069 0.082 0.133 0.040 0.069 0.164 0.274 0.034 0.069 0.029 0.069 0.029 0.137 0.006 0.137v0.48h0.549v-0.48l0.006-0.137 0.011-0.069 0.015-0.069 0.027-0.069 0.029-0.069 0.076-0.137 0.084-0.137 0.082-0.137 0.040-0.069 0.131-0.206 0.040-0.065 0.032-0.069 0.021-0.038 0.023-0.103h-0.103l-0.107 0.002-0.131 0.015-0.065 0.017-0.114 0.069-0.095 0.109-0.044 0.065-0.038 0.067-0.069 0.133-0.023 0.038-0.034 0.103z"></path>
<path fill="#abadad" d="M3.086 11.246v0zM5.143 11.246v0zM6.72 11.246v0z"></path>
<path fill="#fff" d="M19.063 11.314l0.034 0.103 0.023 0.038 0.065 0.129 0.015 0.038 0.069 0.103 0.084-0.053 0.025-0.036 0.044-0.055 0.078-0.126 0.040-0.069 0.025-0.038 0.048-0.103-0.103 0.006-0.038 0.010-0.133 0.027-0.133 0.021-0.141 0.006z"></path>
<path fill="#fff" d="M5.83 11.349l-0.122 0.069-0.051 0.051-0.074 0.122-0.027 0.067-0.042 0.137-0.023 0.137v0.137l0.010 0.069 0.013 0.069 0.042 0.137 0.061 0.131 0.040 0.057 0.051 0.051 0.122 0.069 0.135 0.023 0.135-0.023 0.122-0.069 0.051-0.051 0.074-0.122 0.027-0.067 0.042-0.137 0.023-0.137v-0.137l-0.010-0.069-0.013-0.069-0.042-0.137-0.061-0.131-0.040-0.057-0.051-0.051-0.122-0.069-0.135-0.023-0.135 0.023z"></path>
<path fill="#707070" d="M4.32 11.383v0zM8.64 11.383v0z"></path>
<path fill="#abadad" d="M5.006 11.451v0zM6.857 11.451v0z"></path>
<path fill="#abadad" d="M5.554 11.52v0zM6.309 11.52v0z"></path>
<path fill="#030303" d="M17.074 11.657v1.371h0.549v-1.44l-0.103 0.017-0.107 0.025-0.129 0.021-0.069 0.004-0.141 0.002z"></path>
<path fill="#707070" d="M5.486 11.657v0zM6.377 11.657v0z"></path>
<path fill="#273231" d="M4.96 11.771v0.046h0.023v-0.046h-0.023z"></path>
<path fill="#abadad" d="M5.486 11.726v0zM6.377 11.726v0z"></path>
<path fill="#273231" d="M6.949 11.771v0.023l0.023 0.023v-0.046h-0.023z"></path>
<path fill="#fff" d="M7.886 11.794v0.617h0.137l0.069-0.069-0.006-0.103-0.027-0.107-0.025-0.065-0.051-0.13-0.029-0.055-0.013-0.036-0.055-0.053z"></path>
<path fill="#fff" d="M8.846 11.794l-0.019 0.103-0.038 0.103-0.025 0.065-0.021 0.038-0.034 0.103 0.118-0.023 0.042-0.027 0.023-0.042 0.015-0.053 0.004-0.122-0.013-0.055-0.002-0.036-0.050-0.053z"></path>
<path fill="#030303" d="M15.429 11.931l-0.069 0.069v0.686h-0.343v0.343h1.234v-0.343h-0.343v-0.823l-0.103 0.017-0.107 0.025-0.129 0.021-0.141 0.006z"></path>
<path fill="#abadad" d="M4.526 11.931v0zM7.954 11.931v0z"></path>
<path fill="#707070" d="M8.023 12.069v0zM8.709 12.069v0zM18.857 12.069v0z"></path>
<path fill="#707070" d="M3.497 12.137v0zM4.663 12.137v0z"></path>
<path fill="#abadad" d="M5.486 12.206v0zM6.377 12.206v0z"></path>
<path fill="#707070" d="M5.486 12.274v0zM6.377 12.274v0z"></path>
<path fill="#030303" d="M13.097 12.343l0.019 0.103 0.015 0.038 0.069 0.133 0.109 0.131 0.065 0.057 0.067 0.051 0.137 0.074 0.137 0.050 0.069 0.019 0.137 0.023 0.069 0.004 0.137-0.004 0.137-0.021 0.069-0.017 0.069-0.015 0.069-0.019 0.065-0.015 0.107-0.027 0.103-0.017v-0.48l-0.103 0.034-0.038 0.023-0.069 0.029-0.065 0.034-0.137 0.053-0.137 0.027-0.137-0.002-0.069-0.015-0.135-0.069-0.063-0.050-0.091-0.099-0.053-0.103-0.141 0.006-0.133 0.021-0.133 0.027-0.038 0.010-0.103 0.006z"></path>
<path fill="#abadad" d="M5.554 12.411v0zM6.309 12.411v0z"></path>
<path fill="#423b3c" d="M3.291 12.549v0z"></path>
<path fill="#e5c7cb" d="M3.36 12.549v0z"></path>
<path fill="#4a4a4a" d="M4.114 12.549v0z"></path>
<path fill="#abadad" d="M4.663 12.549v0z"></path>
<path fill="#273231" d="M13.851 12.549v0z"></path>
<path fill="#abadad" d="M13.92 12.549v0z"></path>
<path fill="#bfbfbf" d="M14.263 12.549v0z"></path>
<path fill="#707070" d="M14.331 12.549v0zM3.497 12.617v0z"></path>
<path fill="#bfbfbf" d="M3.566 12.617v0z"></path>
<path fill="#abadad" d="M3.977 12.617v0z"></path>
<path fill="#707070" d="M5.76 12.617v0z"></path>
<path fill="#030303" d="M10.011 13.029h1.371v-0.411l-0.103 0.017-0.038 0.010-0.133 0.027-0.069 0.010-0.206 0.011-0.137 0.021-0.137 0.032-0.069 0.019-0.137 0.032-0.135 0.029-0.063 0.019-0.053 0.025-0.067 0.065-0.025 0.095z"></path>
<path fill="#bfbfbf" d="M13.166 12.617v0z"></path>
<path fill="#abadad" d="M5.143 12.686v0z"></path>
<path fill="#949494" d="M13.234 12.686v0z"></path>
<path fill="#bfbfbf" d="M4.526 12.754v0z"></path>
<path fill="#707070" d="M13.303 12.754v0z"></path>
<path fill="#273231" d="M4.389 12.823v0z"></path>
<path fill="#bfbfbf" d="M13.371 12.823v0z"></path>
<path fill="#abadad" d="M3.086 12.891v0z"></path>
<path fill="#423b3c" d="M3.154 12.891v0z"></path>
<path fill="#273231" d="M4.251 12.891v0z"></path>
<path fill="#949494" d="M13.509 12.891v0z"></path>
<path fill="#4a4a4a" d="M14.537 12.891v0z"></path>
<path fill="#e5c7cb" d="M14.606 12.891v0z"></path>
<path fill="#949494" d="M3.36 12.96v0z"></path>
<path fill="#707070" d="M3.429 12.96v0z"></path>
<path fill="#273231" d="M3.543 12.983l0.023 0.023h0.023l-0.023-0.023h-0.023z"></path>
<path fill="#030303" d="M9.257 12.96l0.050 0.049 0.036 0.002 0.12 0.017-0.050-0.050-0.036-0.002-0.12-0.017z"></path>
<path fill="#949494" d="M13.714 12.96v0z"></path>
<path fill="#423b3c" d="M14.263 12.96v0z"></path>
<path fill="#707070" d="M14.331 12.96v0z"></path>
<path fill="#bfbfbf" d="M14.4 12.96v0z"></path>
<path fill="#f99a9c" d="M1.44 13.303l0.050 0.049 0.036 0.002 0.12 0.017-0.050-0.049-0.036-0.002-0.12-0.017z"></path>
<path fill="#e5c7cb" d="M1.006 13.394l0.023 0.023h0.023l-0.023-0.023h-0.023z"></path>
<path fill="#f99a9c" d="M1.143 13.394l0.023 0.023h0.023l-0.023-0.023h-0.023zM0.594 13.463l0.023 0.023h0.023l-0.023-0.023h-0.023z"></path>
<path fill="#e75f67" d="M0.731 13.463l0.023 0.023h0.023l-0.023-0.023h-0.023z"></path>
<path fill="#e3293b" d="M0.869 13.463l0.023 0.023h0.023l-0.023-0.023h-0.023z"></path>
<path fill="#840f13" d="M0.434 13.554v0.023l0.023 0.023v-0.046h-0.023z"></path>
<path fill="#b12e36" d="M0.48 13.509v0.206l0.048-0.051v-0.103l-0.048-0.051z"></path>
<path fill="#707070" d="M0.069 13.646v0zM23.589 13.646v0z"></path>
<path fill="#949494" d="M0.069 13.714v0z"></path>
<path fill="#840f13" d="M0.503 13.76v0.023l0.023 0.023v-0.046h-0.023z"></path>
<path fill="#e3293b" d="M0.549 13.714l0.008 0.103 0.042 0.105 0.091 0.112 0.099 0.067 0.103 0.025-0.053-0.103-0.034-0.038-0.101-0.126-0.053-0.055-0.027-0.036-0.074-0.053z"></path>
<path fill="#707070" d="M23.954 13.76v0.046h0.023v-0.046h-0.023z"></path>
<path fill="#abadad" d="M23.52 13.783v0z"></path>
<path fill="#e75f67" d="M2.811 13.851l0.050 0.050 0.036 0.002 0.12 0.017-0.050-0.050-0.036-0.002-0.12-0.017z"></path>
<path fill="#e5c7cb" d="M3.063 13.874l0.023 0.023h0.023l-0.023-0.023h-0.023z"></path>
<path fill="#949494" d="M0.137 13.92v0z"></path>
<path fill="#f99a9c" d="M2.514 13.943l0.023 0.023h0.023l-0.023-0.023h-0.023z"></path>
<path fill="#e5c7cb" d="M2.606 13.92l0.050 0.050 0.036 0.002 0.12 0.017-0.050-0.050-0.036-0.002-0.12-0.017z"></path>
<path fill="#707070" d="M23.451 13.92v0z"></path>
<path fill="#273231" d="M23.863 13.92v0z"></path>
<path fill="#b12e36" d="M1.851 13.989l0.050 0.049 0.036 0.002 0.12 0.017-0.050-0.050-0.036-0.002-0.12-0.017z"></path>
<path fill="#f99a9c" d="M2.103 14.011l0.023 0.023h0.023l-0.023-0.023h-0.023z"></path>
<path fill="#e5c7cb" d="M2.24 14.011l0.023 0.023h0.023l-0.023-0.023h-0.023z"></path>
<path fill="#707070" d="M23.383 13.989v0z"></path>
<path fill="#bfbfbf" d="M23.863 13.989v0z"></path>
<path fill="#949494" d="M0.206 14.057v0z"></path>
<path fill="#e75f67" d="M1.509 14.057l0.050 0.050 0.036 0.002 0.12 0.017-0.050-0.049-0.036-0.002-0.12-0.017z"></path>
<path fill="#e5c7cb" d="M1.76 14.080l0.023 0.023h0.023l-0.023-0.023h-0.023z"></path>
<path fill="#bfbfbf" d="M23.246 14.057v0z"></path>
<path fill="#273231" d="M23.314 14.057v0z"></path>
<path fill="#4a4a4a" d="M23.794 14.057v0z"></path>
<path fill="#707070" d="M0.274 14.126v0z"></path>
<path fill="#b12e36" d="M0.891 14.126l0.053 0.050 0.036 0.002 0.051 0.013 0.063 0.002 0.139 0.002-0.053-0.049-0.036-0.002-0.051-0.013-0.063-0.002-0.139-0.002z"></path>
<path fill="#f99a9c" d="M1.28 14.149l0.023 0.023h0.023v-0.023h-0.046z"></path>
<path fill="#949494" d="M23.109 14.126v0z"></path>
<path fill="#4a4a4a" d="M23.177 14.126v0z"></path>
<path fill="#273231" d="M0.343 14.194v0zM1.211 14.217l0.023 0.023h0.023l-0.023-0.023h-0.023z"></path>
<path fill="#bfbfbf" d="M23.657 14.263v0z"></path>
<path fill="#707070" d="M0.48 14.331v0z"></path>
<path fill="#bfbfbf" d="M0.549 14.4v0z"></path>
<path fill="#949494" d="M23.451 14.4v0z"></path>
<path fill="#e5c7cb" d="M0.686 14.469v0z"></path>
<path fill="#4a4a4a" d="M0.754 14.469v0z"></path>
<path fill="#423b3c" d="M23.246 14.469v0z"></path>
<path fill="#abadad" d="M23.314 14.469v0zM0.937 14.56l0.023 0.023h0.023v-0.023h-0.046z"></path>
<path fill="#949494" d="M1.029 14.537l0.053 0.050 0.036 0.002 0.055 0.013 0.063 0.002 0.135 0.002h21.669l-0.053-0.050-0.036-0.002-0.055-0.013-0.063-0.002-0.135-0.002h-21.669z"></path>
<path fill="#bfbfbf" d="M23.086 14.56v0.023h0.046v-0.023h-0.046z"></path>
</svg>
